<?xml version="1.0" encoding="utf-8"?>
<!-- Generator: Adobe Illustrator 22.1.0, SVG Export Plug-In . SVG Version: 6.00 Build 0)  -->
<svg version="1.1" id="Layer_1" xmlns="http://www.w3.org/2000/svg" xmlns:xlink="http://www.w3.org/1999/xlink" x="0px" y="0px"
	 viewBox="0 0 148 45" style="enable-background:new 0 0 148 45;" xml:space="preserve">
<style type="text/css">
	.st0{fill:#FFFFFF;}
	.st1{fill:#22A494;}
</style>
<g>
	<path class="st0" d="M134.6,17.3c0,1,0,2.1,0,3.3c-30.9,0-61.6,0-92.6,0c0.1,2.3,0.2,4.3,0.3,6.3c0,0.2,0.4,0.5,0.7,0.6
		c0.1,0.1,0.5-0.1,0.6-0.3c0.8-1.4,0.8-1.4,2.8-1.4c0,2.1,0,4.2,0,6.4c-0.8,0-1.6,0-2.4,0c-0.1-0.2-0.1-0.5-0.2-0.7
		c-0.2-0.3-0.5-0.5-0.8-0.8c-0.2,0.3-0.6,0.6-0.6,1c-0.1,2.1,0,4.2,0,6.4c1.2,0.1,2.3,0.2,3.5,0.3c0,0.9,0.1,1.7,0,2.5
		c0,0.3-0.6,0.5-0.9,0.8c-3.9,0-7.9,0-11.8,0c0-1.1,0-2.2,0-3.3c1.2-0.1,2.4-0.2,3.6-0.3c0-5.8,0-11.5,0-17.4c-1.2,0-2.4,0-3.6,0
		c0-1.2,0-2.3,0-3.5C66.9,17.3,100.8,17.3,134.6,17.3z"/>
	<path class="st0" d="M52.1,41.8c-0.3-0.1-0.5-0.2-0.8-0.2c-1.6-0.2-2.9-1.4-2.9-3c-0.1-3.9-0.2-7.9-0.1-11.9c0-1.8,1.2-3,3-3.1
		c3.1-0.1,6.2-0.2,9.2,0c1.8,0.1,2.6,1,2.7,2.7c0.1,2.5,0,4.9,0,7.6c-3.1,0-6.4,0-9.7,0c0,1.6,0,3,0,4.5c0,0.2,0.4,0.4,0.6,0.5
		c0,0,0.2,0,0.2,0c3.5,0.4,3.5,0.4,3.8-3.3c1.7,0,3.4,0,5.2,0c0,0.9,0.1,1.7,0,2.5c-0.2,1.7-1.3,2.9-3,3.4c-0.3,0.1-0.6,0.2-0.9,0.3
		C57,41.8,54.5,41.8,52.1,41.8z M58.1,31.8c0-1.6,0-3.1,0-4.6c0-1-0.7-1.4-1.5-1.3c-1.1,0.1-2.4-0.5-3,1c0,0,0,0.1,0,0.1
		c0,1.6,0,3.2,0,4.9C55.1,31.8,56.5,31.8,58.1,31.8z"/>
	<path class="st0" d="M103.5,41.8c-0.2-0.1-0.4-0.2-0.6-0.2c-1.7-0.2-2.8-1-3-2.7c-0.2-1.8-0.2-3.7-0.1-5.5c0.1-1.7,0.8-2.1,2.5-2.3
		c1.7-0.1,3.4-0.2,5.1-0.3c0.9,0,1.2-0.3,1.1-1.2c0-0.7,0-1.5,0-2.2c0-1.2-0.4-1.6-1.6-1.7c-1.5-0.1-2.1,0.4-2.1,1.6
		c0,0.5,0,1.1,0,1.8c-0.9,0-1.8,0-2.6,0c-0.8,0-1.7,0-2.5,0c-1-3.4,0.7-5.8,4.1-5.8c2.4,0,4.9,0.1,7.3,0.2c1.6,0.1,2.6,1.2,2.6,2.8
		c0.1,3.3,0.1,6.7,0.2,10c0,0.8,0,1.6,0.9,2.1c0.2,0.1,0.3,0.5,0.3,0.8c0,0.8,0,1.6,0,2.4C111.3,41.8,107.4,41.8,103.5,41.8z
		 M108.5,38.9c0-2,0-4,0-5.9c-3-0.7-3.6-0.3-3.6,2.6c0,0,0,0.1,0,0.1c0,3.4,0,3.4,3.4,3.2C108.4,39,108.4,39,108.5,38.9z"/>
	<path class="st0" d="M65.3,41.8c0.1-1.1,0.1-2.3,0.2-3.5c0.5,0.1,0.9,0.1,1.3,0.1c0-4,0-7.9,0-12c-0.4,0-0.8-0.1-1.3-0.1
		c-0.1-0.9-0.1-1.9-0.2-2.9c2.3,0,4.5,0,6.9,0c0,0.6,0.1,1.2,0.1,2.1c0.6-0.3,1-0.6,1.5-0.9c1.3-0.8,2.6-1.3,4.1-1.3
		c1.6,0.1,2.6,0.8,2.7,2.3c0.1,2.4,0,4.9,0,7.4c-1.6,0.1-3.3,0.2-5.1,0.3c-0.1-2.2-0.2-4.4-0.3-6.8c-1.4,1.6-3.4,2.4-3,4.9
		c0.3,1.9,0.2,3.8,0.3,5.7c0,0.3,0.1,0.9,0.3,0.9c1.4,0.4,1,1.5,1.1,2.5c0,0.4,0,0.8,0,1.2C71,41.8,68.1,41.8,65.3,41.8z"/>
	<path class="st0" d="M117.2,41.8c0-1.1,0-2.2,0-3.4c0.1,0,0.2,0.1,0.3,0.1c0.3-0.4,0.9-0.8,1-1.2c0.1-3.6,0-7.2,0-10.8
		c-1.5-0.3-1.5-0.3-1.3-3.1c2.2,0,4.4,0,6.7,0c0,0.6,0.1,1.2,0.1,2c0.6-0.3,1-0.7,1.5-0.9c1.1-0.4,2.3-1,3.5-1.1
		c2.2-0.3,3.5,1,3.5,3.2c0,2.2,0,4.4,0,6.7c-1.8,0-3.5,0-5.4,0c0-2.1,0-4.2,0-6.4c-1.8,0.5-3.1,2.2-3.1,3.8c0,2.5,0,5,0,7.5
		c1.6,0.5,1.6,0.5,1.6,2.3c0,0.4,0,0.9,0,1.3C122.8,41.8,120,41.8,117.2,41.8z"/>
	<path class="st0" d="M82.7,41.8c0-1.1,0-2.2,0-3.4c0.5,0,1-0.1,1.5-0.1c0-3.9,0-7.8,0-11.7c-1.7-0.3-1.8-0.5-1.4-3.1
		c2.2,0,4.4,0,6.6,0c0.1,0.7,0.1,1.3,0.2,1.9c1.6-0.6,3-1.3,4.5-1.8c0.9-0.3,1.9-0.2,2.7,0.5c0.8,0.6,1.2,1.3,1.2,2.4
		c-0.1,2.3,0,4.6,0,6.9c-1.8,0-3.5,0-5.4,0c0-2.1,0-4.2,0-6.3c-1.7,1.2-3.4,2.1-3.1,4.5c0.2,1.8,0.1,3.6,0.2,5.5
		c0,0.6,0.1,1.2,0.9,1.5c0.2,0.1,0.5,0.6,0.5,0.9c0.1,0.8,0,1.6,0,2.4C88.2,41.8,85.5,41.8,82.7,41.8z"/>
	<path class="st0" d="M135.3,41.8c0-0.6,0-1.2,0-1.7c0-1.6,0.1-1.6,1.7-1.8c0-3.9,0-7.7,0-11.7c-1.9-0.5-1.9-0.5-1.6-3.2
		c2.9,0,5.8,0,8.7,0c0,0.9,0,1.7,0,2.6c-0.5,0.2-1,0.5-1.5,0.7c0,2.6,0,5.4,0,8.2c0,1.5-0.2,3.2,1.5,4.2c0,0.9,0,1.9,0,2.8
		C141.2,41.8,138.3,41.8,135.3,41.8z"/>
	<path class="st0" d="M143.4,19.7c-2.2,1.6-4.5,1.3-6.8,0.6c-0.4-0.1-1-0.8-1-1.3c0-0.3,0.6-0.9,1-1.1c0.5-0.3,1.1-0.4,1.7-0.6
		c0.7,0,1.4,0,2.1,0c1,0.4,2,0.8,3,1.2C143.4,18.9,143.4,19.3,143.4,19.7z"/>
	<path class="st0" d="M136.2,19.7c2.2,1.6,4.6,1.3,6.9,0.6c0.4-0.1,1-0.8,1-1.3c0-0.3-0.6-0.9-1-1.1c-0.5-0.3-1.1-0.4-1.7-0.6
		c-0.7,0-1.4,0-2.2,0c-1,0.4-2,0.8-3,1.2C136.2,18.9,136.2,19.3,136.2,19.7z"/>
</g>
<g>
	<path class="st1" d="M16.7,36l0.6,0.2l0.5,0.2l0.2,0.1l0.6,0l0.3-0.1l0.2-0.3l0.2-0.4l0-0.3L19,35.1l-0.3-0.6l-0.2-0.6l-0.2-0.7
		l-0.1-0.6v-0.6l0.1-0.7l0.1-0.3l-0.1-0.3l-0.2-0.1l-0.4-0.3l-0.3-0.2l0-0.4l-0.1-0.4l-0.2-0.4l-0.2-0.3l-0.3-0.3l-0.4-0.3l-0.4-0.3
		l-0.2-0.1l-0.2-0.1l-0.2,0l-0.2,0.1L14.8,28l0.1,0.3l0.2,0.7l0.3,1l0.2,0.6l0.3,0.7l0.2,0.4l0.4,0.6l0.4,0.7l0.3,0.5l0.3,0.4l0,0.2
		l0,0.2l-0.2,0.1l-0.5,0l-0.8,0l-0.7-0.1l-0.6-0.1L14,34.1l-0.4-0.2l-0.2-0.1l-0.3-0.1l-0.3,0l-0.2,0.1h-0.2l-0.6-0.1l-0.3-0.1
		l-0.3,0l-0.5,0l-0.4,0H9.9l-0.4,0l-0.3,0.1L9,33.8L9,33.9L9,34l0.2,0.3l0.3,0.5l0.2,0.1l0.3,0.2l0.4,0.2l0.4,0.1l0.5,0l0.5-0.1
		l0.4-0.1l0.4-0.1l0.1,0.1l0.1,0.1l0.1,0l0.3,0l0.4,0l0.2,0.1l0.2-0.1l0.8,0.1l0.5,0.1l0.8,0.2L16.7,36z M17.9,34.7l0.1-0.1l0,0
		l0.1,0h0.1l0,0v0.1l0,0.1l-0.1,0.1l-0.1,0l-0.1,0V34.7L17.9,34.7z M10.6,34.2L10.6,34.2l-0.1,0.2l-0.1,0l-0.1,0l-0.1,0l0,0
		l-0.1-0.1l0-0.1l0-0.1l0.1,0l0.1,0v0l0.1,0l0.1,0L10.6,34.2L10.6,34.2z M15.9,35l-0.2,0l-0.2,0l-0.5-0.1l-0.4-0.1l-0.3-0.1l0-0.1
		l0-0.1l0.1,0l0.4,0.1l0,0l0.2,0.1l0.2,0l0.2,0l0.3,0l0.3,0l0.3,0l0.2,0l0.1,0l0,0V35l0,0.1l-0.1,0l-0.2,0L15.9,35z"/>
	<path class="st1" d="M31.6,18.1L31.5,18v0.3l-0.1,0.2l-0.2,0.4L31,18.9l-0.4,0.5l-0.2,0.2L30.2,20L30,20l-0.2-0.1l-0.1-0.5l0-0.6
		l0.1-0.5l0.3-0.5l0.6-0.9l0.4-0.7l0-0.5l-0.1-0.2l-0.1,0.1l-0.2,0.5l-0.3,0.5l-0.4,0.3l-0.5,0.5L29,18.1l-0.1,0l0-0.1l0-0.3l0-0.6
		l0.2-0.7l0.4-0.8l0.5-0.6l0.6-0.5l0.1-0.1l-0.1-0.1l-0.3,0.2L30,14.5l-0.4,0.4L29,15.4l-0.4,0.5l-0.4,0.7L28,17.2l-0.1,0.6l0,0.8
		l0.2,0.8l0.2,0.7l0.4,1.1l0.2,1.3l0.1,1v0.5l-0.1,0.6L28.8,25l-0.2,0.5L28,26.3l-0.7,0.6l-0.8,0.5l-0.8,0L25.6,27l-0.3-0.6
		l-0.4-0.5l-0.3-0.3l-0.3-0.5l-0.8-0.7l-0.8-0.6l-0.3-0.3l-1.1-0.7l-1.5-1.3l-0.8-1L18.2,19l-0.2-0.9l0.1-0.6l0.1-0.1l0.3,0.2
		l0.5,0.2l0.4,0l0.5,0.2l0.5,0.3l0.3,0.2l0.3,0.2l0.3,0l0.1-0.2l-0.1,0l-0.1,0L21,18.7l-0.2-0.2l-0.2-0.4l-0.4-0.4l-0.4-0.2l-0.2,0
		l0-0.1h0.3l0.4,0.1l0.5,0.4l0.2,0.1l0.1-0.1L21,17.6l-0.4-0.4l-0.6-0.3l-0.8-0.3L19,16.5l0.2-0.1l0.3,0.2l0.6,0.1l0.7,0.3l0.4,0.2
		l0.6,0.1l0.5-0.1l0.3-0.1l0.4-0.2l0.2-0.1l0-0.1l-0.1,0l-0.1,0.1l-0.5,0.1L22,16.9l-0.3,0l-0.3-0.3L21,16.3L20.7,16l-0.5-0.1
		l-0.5-0.2l-0.2-0.1l0-0.1l0.2,0h0.4l0.4,0H21l0.2,0l0.2,0.2l0.3,0.1H22l0.1-0.1l-0.2-0.1l-0.3-0.2l-0.3-0.3l-0.4-0.2l-0.4,0l-0.3,0
		l-0.1-0.1l0.2-0.1h0.4l0.3,0.1l0.3,0.2l0.5,0.2l0.5,0l0.3-0.1l0.1-0.2l-0.2-0.1l-0.4,0l-0.4-0.1l-0.3-0.3l-0.3-0.2L20.6,14
		l-0.4-0.1l-0.2-0.2l0-0.1l0.2,0l0.3,0.1l0.2,0.1l0.3,0l0-0.1l-0.3-0.2l-0.1-0.2l0.4,0.1l0.3,0.2l0.4,0l0.2,0.3l0.5,0.3l0,0l0.1,0
		l0.1-0.1L22.8,14l-0.2,0l-0.2-0.2l-0.3-0.5l-0.5-0.5L21,12.6l-0.2-0.2L20.6,12l-0.3-0.2l0-0.2l0.1-0.1l0.3,0.1l0.6,0.2l0.3,0.1
		l0.2,0.3l0.3,0.2h0.2l0.3,0.1l0.4-0.1l0.1-0.1L23,12.1l-0.3-0.1l-0.3,0l-0.2-0.2l-0.3-0.4l-0.1-0.2l-0.3-0.3l-0.4-0.2l-0.4-0.3
		L20.3,10l0-0.1h0.1l0.6,0.5l0.6,0.4l0.3,0.2l0.4,0.4l0.4,0.2l0.2,0.1l0.1-0.2l-0.2-0.1l-0.3-0.3l-0.1-0.3l-0.3-0.4l-0.3-0.2
		l-0.1-0.3l-0.5-0.7l-0.6-0.6l0-0.2l0.2,0l0.3,0.2l0.5,0.2l0.5,0L22.5,9L22.9,9l0.4-0.1l0-0.2l-0.4-0.1l-0.4-0.2l-0.7-0.4L21.4,8
		l-0.2-0.3l0.1-0.1l0.1,0.1l0.2,0.1l0.2,0h0.4l0.3,0l0.5,0l0.4,0.1l0.4,0.3l0.2,0l0-0.1l-0.1-0.1l-0.4-0.3l-0.6-0.3l-0.4,0l-0.8,0
		l-0.2-0.2l-0.4-0.4l-0.4-0.3l-0.2-0.2L20.4,6l0.2,0.1L21,6.3l0.4,0.2L22,6.6h0.5L22.9,7l0.3,0.2l0.1-0.1l-0.5-0.7l-0.7-0.5
		l-0.6-0.1l-0.5-0.5L20.7,5l-0.6-0.2l0.3-0.3L21,4.3l0.4-0.1l0.1-0.1l-0.1-0.1l-0.2-0.1l-0.2,0l-1.7,0L19,3.5l-0.3-0.2l-0.4-0.2
		L17.6,3h-0.5L17,2.8l-0.5-0.5l-0.6-0.5l-0.3,0.6l0,0.2l0.2,0.2l0,0.2l-0.1,0.1l-0.4,0l-0.7-0.2l-0.7-0.1l-0.3,0L13,2.9l0.1,0.2
		l0.3,0l0.1,0l0,0.2l-0.2,0l-0.2,0l-0.3,0.1l-0.2,0.1l-0.2,0l-0.1,0.1l0.1,0.1l0.1,0l0.1,0l0.2-0.1l0.2,0l0.4,0l0.3,0.1l0.3,0.1
		l0.5,0.2l0,0.1l0,0.1l-0.2,0.1L14,4.2l-0.2,0.2l-0.4,0.2l-0.4,0.3l-0.5,0.2L12,5.4l-0.4,0.2l-0.3,0.1l-0.3,0l-0.4,0l-0.2,0
		l-0.1,0.2l-0.1,0.2l-0.1,0.1L10,6.5L9.8,6.9L9.7,7l0,0.2l0,0.3v0.3l0.2,0.2L10,8l0.2,0l0.3-0.1l0.3-0.1l0.4-0.2l0.2,0l0,0.1l0,0.1
		l-0.1,0.1l-0.5,0.2l-0.3,0.1l-0.1,0.1l0,0.1l0.1,0.1l0.2,0H11l0.2,0l0.3-0.1l0.4-0.2l0.2,0l0.2,0l0.2,0.1l0.2,0l0.2,0l0.2,0.1
		l0.3,0l0.4,0.1l0.2,0l0.3-0.1l0.4,0L15,8.6l0.1,0.2L15,9l0,0.3l-0.1,0.3L14.7,10l-0.1,0.4l-0.1,0.4L14.4,11L14,11.6l-0.4,0.5
		l-0.4,0.5l-0.5,0.5l-0.4,0.4l-0.3,0.3l-0.1,0.5l-0.2,0.2l-0.3,0.2l-0.3,0.3l-0.5,0.3l-0.4,0.2L10,15.7l-0.2,0.2L9.6,16l-0.3,0.1
		l-0.2,0L8.9,16l-0.4-0.2L8,15.5l-0.6-0.3l-0.3-0.2l-0.4-0.3l-0.4-0.3l-0.5-0.2L5.4,14l-0.5,0.1l-0.4,0.2l-0.3,0.2L4,15l-0.1,0.3
		l-0.1,0.5l-0.1,0.3l-0.1,0.4l0,0.5l-0.1,0.3l-0.1,0.5l-0.1,0.5l-0.2,0.5l-0.1,0.5l-0.1,0.6l-0.2,0.5l-0.1,0.3l0,0.3l0,0.5v0.8
		l-0.1,0.3l0.1,0.3l0,0.5l0.2,0.4l0.1,0.1l0.2-0.1L3,23.4L3.3,23l0.3-0.4l0.1-0.4l-0.1-0.3l-0.1-0.4l-0.1-0.4l-0.1-0.5l-0.1-0.3V20
		l0.1-0.4l0.2-0.6l0.2-0.3l0.2-0.1L4,18.4l0.2,0l0.1-0.1l0.2-0.1L4.7,18l0.2-0.2l0.1-0.3l0.1-0.2L5,17L5,16.8l0.1-0.2l0.1,0l0.2,0.1
		l0.2,0.1L5.9,17l0.3,0.4l0.3,0.4l0.3,0.3l0.3,0.2l0.3,0.1l0.1,0.2l-0.1,0.1l-0.3-0.1l-0.4,0l-0.6-0.1l-0.5-0.1l-0.7,0l-0.4,0
		l-0.3,0.2l-0.3,0.3l-0.3,0.4l-0.2,0.5l0,0.4l0.1,0.7l0.3,0.8l0.1,0.7L4.1,23l0.1,0.5l0.1,0.4l0.1,0.5l0.1,0.7l0.1,0.3l0.3,0.2
		l0.3,0.3l0.3,0.4l0.2,0.5L6,27.2l0.5,0.4l0.3,0.2l0.2,0l0.2-0.1l0.1-0.3l0.1-0.2L7.5,27v-0.7l-0.1-0.2c0,0,0-0.1,0-0.1l0-0.1
		l-0.1-0.2l-0.3-0.3l-0.5-0.2l-0.2-0.1l0-0.3l0-0.2l-0.3-0.4l-0.2-0.5l-0.2-0.7l-0.1-0.7L5,21.7l-0.1-0.6l0.1-0.4l0.3-0.1h0.2
		l0.3,0.3L6.3,21l0.4,0.2l1.1,0.5L8.3,22v0.3l0.5,0.3l0.6,0.2h1.3L10.5,23l-0.1,0.1l0.2,0.3l0.3,0.5l0.5,0.5l0.6,0.7l0.5,0.5l1,0.7
		l0.8,0.4l0.6,0.3l0.8,0.5l0.7,0.5l0.6,0.5l0.6,0.8l0,0.4l0.1,0.4l0.4,0.3l0.3,0.1l0.2,0l0.2-0.2l0.2-0.3l0.1-0.4l0.3-0.5l0.1-0.4
		l0-0.4l0-0.3l0.1-0.2l0.2-0.1h0.2l0,0.1L20,28l-0.1,0.3l-0.1,0.2v0.2l0,0.5l-0.1,0.3l-0.2,0.4l-0.3,0.5L18.8,31l-0.2,0.7l-0.1,0.8
		l0.1,0.8l0.1,0.5l0.3,0.6l0.4,0.8l0.3,0.6l0.4,0.6l0.5,0.6l0.1,0.2v0.1l-0.1,0.2l-0.2,0.3l-0.3,0.4l-0.5,0.7l-0.5,0.6L18.6,40
		l-0.2,0.1L18,40.3l-0.3,0.2l-0.1,0.3l-0.3,0.4l-0.3,0.4L16.5,42l-0.3,0.5l-0.2,0.5L16,43.3l0,0.3l0.2,0.2h0.7l0.3,0l0.3-0.2
		l0.4-0.2l0.1-0.2H18l0.2-0.1l0.2-0.2l0.1-0.7l-0.1-0.2l0-0.2l0.1,0l0.1,0l0.1-0.1l0.2-0.1l0.2-0.3l0.3-0.4l0.1-0.3l0-0.3l0.2-0.1
		l0.2-0.1l0.2-0.1l0.2-0.3l0.4-0.4l0.7-0.6l0.5-0.3l0.5-0.3l0.1-0.1l0-0.1l0.1-0.1l-0.1-0.2l0-0.3L22.6,37l-0.1-0.2l-0.2-0.3
		L22,36.2l-0.1-0.3l0-0.3v-0.4l0.1-0.2l0.2-0.6l0.2-0.3l0.2-0.1l0.3-0.2l0.4-0.3l0.5-0.5l0.4-0.4l0.4-0.4l0.4-0.4l0.3-0.5l0.2-0.4
		l0.2-0.5l0.2-0.5l0-0.5l0-0.4l0.1-0.1l0.1,0l0.1,0.1l0.1,0.3l0,0.4l0.1,0.3l0,0.2l0,0.4v0.8l0.1,0.6l0.1,0.2l0.1,0l0-0.1l-0.1-0.2
		v-0.4l0.1-0.3l0.1-0.5l0.1-0.4l0.1-0.2H27l0.1,0.1l0.1,0.3l0.1,0.3l0,0.4l-0.1,0.6l-0.3,0.6l-0.3,0.6l-0.2,0.5l0,0.3l0,0.3l0.1,0.3
		h0.2l0.1-0.1l-0.1-0.2l0-0.3l0.2-0.2l0.2-0.3l0.1-0.3l0.3-0.5l0.3-0.5l0.1-0.5l0.1-0.7v-0.7l-0.1-0.5l-0.3-0.4l0-0.2l0.1-0.1
		l0.2,0.1l0.2,0.2l0.2,0.4l0.1,0.5l0.1,0.7l0.2,0.5l0,0l0.2,0.5l0.1,0l0.1-0.1l0-0.1L29,31.1l0-0.4l0-0.5l0.1-0.6v-0.3l0-0.2
		l-0.2-0.5l-0.2-0.4l0.1-0.1l0.3-0.1l0.4-0.2l0.4-0.2l0.4-0.3l0.5-0.7l0.3-0.5l0.2-0.5l0.1-0.8l0-0.8l-0.1-0.9L31,22.4l-0.1-0.7
		L30.8,21l0.1-0.5l0.1-0.6l0.3-0.6l0.4-0.6l0.1-0.4l0-0.2L31.6,18.1z M10.8,7l-0.1,0.1l-0.2,0.1l-0.2,0l-0.1,0l0-0.2l0.1-0.2
		l0.2-0.2l0.1-0.1l0.1,0l0.1,0.1l0.1,0.1L10.8,7z M11.4,6.8L11.4,6.8l-0.1,0l-0.1,0l-0.1-0.1l0-0.1l0.1-0.1h0l0,0h0.1l0.1,0l0,0.1
		L11.4,6.8L11.4,6.8z M12.2,7.5L12.2,7.5l-0.1,0l0,0l0-0.1l0-0.1l0,0l0.1,0l0.1,0l0,0L12.2,7.5L12.2,7.5z M13.6,5.4L13.6,5.4
		l-0.2,0.1l-0.1,0.1l-0.3,0.2l-0.4,0.1l-0.2,0.1l-0.2,0l-0.1,0h0l0.2-0.2l0.4-0.2l0.4-0.2l0.3-0.2l0.2-0.1l0.1,0l0.1,0L13.6,5.4
		L13.6,5.4z M2.9,22.6l-0.1,0l-0.1-0.1l0.1-0.1l0.1,0L2.9,22.6L2.9,22.6z M4.5,16.2l-0.1,0.3l-0.1,0.4l-0.2,0.3l-0.1,0l0-0.1V17
		l0-0.2L4,16.3L4.2,16v0l0.1-0.1l0.1,0l0,0.1L4.5,16.2z M5.4,15L5.2,15l-0.2,0l-0.1,0l0-0.1l0-0.1L5,14.7l0.2,0l0.1,0l0.1,0l0.1,0.1
		L5.4,15L5.4,15z M7,17.2L7,17.2l-0.1-0.1L6.7,17l-0.1-0.1l-0.1-0.1l0-0.1l0-0.1h0l0,0l0,0l0.1,0l0.1,0.1l0.1,0.1l0.1,0.1L7,17L7,17
		L7,17.2L7,17.2z M4.3,19.3l-0.1,0.1l-0.1,0l0,0l0-0.1l0.1-0.2l0-0.1l0.1,0l0.1,0v0.1l0,0.1L4.3,19.3z M4.8,23.2L4.8,23.2L4.8,23.2
		l-0.1,0l0-0.1L4.6,23l-0.1-0.2l-0.1-0.3l0-0.3l0-0.3l0-0.3h0l0,0h0l0,0l0,0.2l0,0.2l0.1,0.3l0.1,0.3l0,0.2l0.1,0.4L4.8,23.2z
		 M6.6,26.7L6.6,26.7l0.2,0l0.1,0.1l0,0.1l0,0.1L6.8,27l-0.1,0l-0.1-0.1L6.6,26.7L6.6,26.7z M7.8,21.1l-0.1,0l-0.2,0l-0.1,0
		l-0.3-0.2l-0.3-0.2l-0.3-0.2l-0.1-0.1l0.1,0l0.1,0.1l0.2,0.1l0.2,0.1l0.3,0.1l0.2,0.1L7.8,21L7.8,21.1L7.8,21.1z M9.2,17.6L9,18
		l-0.2,0.5l-0.3,0.3L8.5,19L8.3,19l-0.1-0.1l0-0.1l0.1-0.1l0.1-0.2l0.2-0.3l0.1-0.3l0.1-0.3L9,17.2l0.1-0.2l0.1,0l0.1,0l0,0.1
		L9.2,17.6z M15.9,7.8L16,7.7l0.2-0.1l0.1-0.1l0.1,0l0.1,0v0.1l0,0.1l-0.2,0.1L16.1,8l-0.2,0l-0.1,0L15.9,7.8L15.9,7.8z M15.3,4.6
		l0.1,0h0l0.1,0l0.1,0l0,0.1l-0.1,0.1l-0.1,0l-0.1,0L15.3,4.6L15.3,4.6z M14.2,5.7l-0.1-0.1l0.1-0.2l0.2-0.1l0.3,0l0.2,0L15,5.4
		l0.1,0.2l0.1,0.2l0,0.2L15,6h-0.2v0l-0.2-0.1l-0.2-0.1L14.2,5.7z M14.9,7.8l-0.2,0.1h-0.2l0-0.1l0.1-0.1l0.1,0l0,0l0.4-0.3l0.3-0.2
		l0.2-0.1h0.1l0,0.1l-0.1,0.1l0,0.2l-0.1,0.2L14.9,7.8z M12.1,15.4L12.1,15.4L12.1,15.4l0-0.2l0.1-0.1l0.3-0.1l0.5-0.2l0.5-0.1h0.3
		l0.3,0.1l0.3,0.1l0.2,0.2l0,0.1l0,0.1l-0.1,0l-0.1,0l-0.2-0.1l-0.2-0.1l-0.2,0h-0.3l-0.2,0l-0.2,0l-0.2,0l-0.2,0.1l-0.2,0
		L12.1,15.4L12.1,15.4z M15.5,26.7l-0.3-0.2l-0.5-0.3l-0.7-0.5l-0.3-0.2l-0.3-0.2L13.1,25l-0.2-0.2l-0.3-0.3l-0.2-0.2l-0.1-0.2
		l0-0.2l0-0.2l0.1-0.1l0.1,0l0.2,0.1l0.2,0.2l0.2,0.2l0.2,0.2l0.2,0.2l0.2,0.2v0l0.2,0.2l0.7,0.6l0.4,0.3l0.3,0.3l0.3,0.3L15.5,26.7
		l0.1,0L15.5,26.7z M15.7,17.2L15.7,17.2l-0.3,0.1l-0.1,0l-0.1-0.1L15.1,17v-0.1l0.1-0.1l0.2-0.1l0.1,0v0l0.1,0l0,0.1l0,0.2l0,0.2
		L15.7,17.2z M16.1,10.3l-0.1,0.3l-0.2,0.5l-0.3,0.4l-0.3,0.5l-0.5,0.7l-0.4,0.4l-0.2,0.1l-0.1,0l0-0.1l0.1-0.2l0.3-0.5l0.2-0.5
		l0.2-0.4l0.4-0.8l0.4-0.6l0.2-0.2l0.1,0l0.1,0.1L16.1,10.3z M17,8.1l0,0.1l-0.2,0.2l-0.2,0.1l-0.2,0.1l-0.2,0H16l-0.1-0.1h0L16,8.5
		l0.1-0.1l0.2-0.1l0.3-0.2l0.1-0.1L16.9,8L17,8V8.1z M18.2,15.1L18.2,15.1l-0.2,0L18,15.1l0-0.1L18,15l0.1,0L18.2,15.1L18.2,15.1
		L18.2,15.1z M18.3,14.7h-0.1l-0.1,0v-0.1l0-0.1l0.1,0h0.1l0.1,0.1L18.3,14.7L18.3,14.7z M18.6,14.1L18.6,14.1l-0.2,0.1l-0.1,0
		l0-0.1V14l0.1-0.1l0.1,0h0.1l0.1,0L18.6,14.1L18.6,14.1z M18.7,13.6l-0.1,0l-0.1,0v0l-0.1,0l0,0l0-0.1l0.1,0l0.1,0l0.1,0L18.7,13.6
		L18.7,13.6z M19,12.8L19,12.8L18.8,13l-0.1,0h-0.1l-0.1,0l0-0.1l0.1-0.1l0.1-0.1l0.1,0l0.1,0h0.1L19,12.8L19,12.8z M19.1,12.2
		L19.1,12.2L19,12.3l-0.1,0l-0.1,0l-0.1-0.1l0-0.1l0-0.1l0.1-0.1l0.1,0l0.1,0L19.1,12.2L19.1,12.2z M19.3,11.8l-0.1,0.1l-0.1,0h-0.1
		h0l-0.1,0l-0.1,0l0-0.1l0-0.1l0.1-0.1l0.1,0l0.1,0l0.1,0l0.1,0l0,0.1L19.3,11.8z M19.3,11L19.3,11l-0.1,0.1l-0.1,0l-0.1,0l-0.1,0
		l0-0.1l0-0.1l0,0l0.2-0.1l0.1,0L19.3,11L19.3,11L19.3,11z M18.9,9.4L18.9,9.4l0.1,0l0-0.1l0-0.1l0,0l0.1,0l0.1,0l0.1,0l0,0.1l0,0.1
		l-0.1,0.1l-0.1,0.1l-0.1,0l-0.1,0l-0.1-0.1L18.9,9.4L18.9,9.4z M18.9,8.8L18.9,8.8L19,8.7l0.1,0h0l0.1,0l0.1,0l0,0.1l0,0.1
		l-0.1,0.1l-0.1,0L18.9,8.8L18.9,8.8z M18.9,10.5L18.9,10.5l0.2-0.1l0.1,0l0.1,0l0,0v0.1l0,0.1l-0.1,0.1L19,10.7v0l-0.1,0l-0.1,0
		l0-0.1L18.9,10.5L18.9,10.5z M19.3,10L19.3,10l-0.1,0.1l-0.1,0h0l-0.1,0l-0.1,0l0-0.1l0-0.1l0,0L19,9.9l0.1,0l0.1,0l0.1,0L19.3,10
		L19.3,10z M19.3,8.2L19.3,8.2l-0.1,0.1l-0.1,0l-0.1,0l-0.1,0l-0.1,0l0-0.1l0-0.1l0,0l0.1,0l0.1-0.1L19.3,8.2L19.3,8.2z M19.2,7.6
		L19.2,7.6L19.2,7.6l0.1,0.2l-0.1,0.1l-0.1,0l-0.1,0l0,0V7.8l0-0.1l0.1-0.1L19.2,7.6L19.2,7.6z M19.1,7.3L19.1,7.3L19,7.4l0,0
		l-0.1,0l-0.1,0l0-0.1l0,0l0.1-0.1l0.1,0L19.1,7.3L19.1,7.3L19.1,7.3z M18.4,5.9l0.1,0l0.2-0.1l0.2,0l0.1,0l0.1,0.1L19,6l-0.1,0
		l-0.2,0.1l-0.2,0.1l-0.2,0.1l-0.2,0.1v0l-0.1,0l-0.1,0l0-0.1l0-0.1V6.1L18,5.9l0.1-0.1l0.1-0.1l0.1-0.1h0.1l0.1,0.1V5.9L18.4,5.9z
		 M18.4,4.3L18.4,4.3L18.4,4.3l0,0.2l-0.1,0l-0.1,0l-0.1,0l0-0.1l0.1,0l0.1,0L18.4,4.3L18.4,4.3z M17.8,3.6l0.2,0l0.1,0l0.1,0l0,0.1
		l-0.1,0l-0.1,0l-0.1,0l-0.1,0L17.8,3.6L17.8,3.6z M19.4,25.2L19.4,25.2l-0.2,0.2l-0.1,0.2l0,0.1L19,25.8l-0.1,0l-0.1-0.1l0-0.3
		l0.1-0.3l0-0.2l0.1-0.2l0.1-0.1l0.1,0h0.1l0.1,0l0.1,0.1l0,0.2L19.4,25.2z M19.6,22.2l-0.5-0.3l-0.3-0.3l-0.5-0.5l-0.4-0.5
		l-0.4-0.6l-0.3-0.7l-0.1-0.5l0.1-0.3l0.2,0l0.2,0.1l0.1,0.3l0.1,0.4l0.2,0.5l0.4,0.7l0.6,0.9L19.6,22.2L19.6,22.2z M19.6,31.2
		l-0.1,0.3l-0.1,0.2l-0.1,0.2l-0.1,0.3l0,0.1l0,0.1l0,0h-0.1l-0.1-0.2l0-0.2l0-0.3l0.1-0.4l0.2-0.2l0.2-0.2l0.1,0l0,0.1L19.6,31.2z
		 M20.2,35.5L20.2,35.5L20.2,35.5l-0.2-0.2l-0.1-0.2l-0.1-0.2l0-0.2v-0.2l0-0.1l0,0h0.1v0l0.1,0l0.1,0.1l0.1,0.2l0,0.2l0,0.2l0,0.1
		l0,0.1L20.2,35.5L20.2,35.5z M17.2,42.7l-0.1,0.1L17,42.9L16.9,43l-0.1,0h0l-0.1,0l0-0.1l0-0.1l0.1-0.1l0.2-0.2h0l0.1-0.1l0.1,0
		l0,0l0,0.1L17.2,42.7z M18.3,40.9L18.3,40.9L18.2,41l-0.1,0L18,41l0-0.1l0-0.1l0.1-0.1l0.1-0.1v0l0.1,0l0,0L18.3,40.9L18.3,40.9z
		 M20.8,38.3l-0.2,0.3l-0.2,0.3l-0.3,0.3l-0.3,0.3l-0.3,0.2l-0.2,0.2L19.2,40l-0.1,0l0-0.1l0-0.1l0.3-0.4l0.5-0.5l0.6-0.6v0l0.1-0.1
		l0.2-0.1l0.1,0l0,0.1L20.8,38.3z M21.9,37.5L21.9,37.5L21.9,37.5l0.2,0l0,0l0,0l0,0.1L22,37.7l-0.1,0.1h-0.1l-0.1,0l0-0.1
		L21.9,37.5L21.9,37.5z M25,29.1l0,0.1l0,0.1l0,0.1l-0.1,0.1l-0.1,0l0-0.1l0-0.3L24.5,29l0-0.2l0.1-0.1l0.1,0l0.1,0l0.1,0.1l0.1,0.1
		l0,0.1V29.1z M30.2,24.4l0,0.2L30.1,25L30,25.4l-0.1,0.3L29.6,26l-0.2,0.3l-0.3,0.4l-0.4,0.3l-0.2,0l-0.1,0l0-0.1l0.1-0.2l0.1-0.2
		l0.2-0.3L29,26l0.2-0.3l0.2-0.3l0.1-0.3l0.1-0.3l0.1-0.4l0-0.4l0-0.4l0-0.3l0-0.4l0-0.3l0-0.2l0.1-0.1v0l0.1,0l0.1,0.2l0.1,0.3
		l0.1,0.4l0.1,0.4V24.4z"/>
	<polygon class="st1" points="14.4,2.6 14.6,2.7 14.8,2.9 15.3,2.9 15.3,2.9 15.3,2.5 14.8,1.9 14.6,1.9 14.5,2 14.5,2.2 14.4,2.4 	
		"/>
</g>
</svg>
